<?xml version="1.0" encoding="utf-8"?>
<!-- Generator: Adobe Illustrator 19.1.0, SVG Export Plug-In . SVG Version: 6.00 Build 0)  -->
<svg version="1.1" id="Layer_1" xmlns="http://www.w3.org/2000/svg" xmlns:xlink="http://www.w3.org/1999/xlink" x="0px" y="0px"
	 viewBox="0 0 88 88" style="enable-background:new 0 0 88 88;" xml:space="preserve">
<g>
	<g>
		<path d="M54.6,0.5H36.3V5h18.4V0.5z M18,82.9c0,1,0.1,1.7,0.2,2.3c0.1,0.6,0.3,1,0.7,1.3
			c0.3,0.3,0.8,0.6,1.4,0.7c0.6,0.1,1.3,0.2,2.2,0.2h45.8c0.9,0,1.7-0.1,2.2-0.2c0.6-0.1,1-0.4,1.3-0.7c0.3-0.3,0.6-0.8,0.7-1.3
			c0.1-0.6,0.2-1.3,0.3-2.3V23.3H18V82.9z M54.6,34.8c0-0.5,0.1-1,0.3-1.3c0.2-0.3,0.4-0.6,0.7-0.7c0.3-0.1,0.7-0.2,1.2-0.2
			c0.5,0,0.9-0.1,1.4-0.1H60c0.5,0,1,0,1.5,0.1c0.4,0,0.8,0.1,1.2,0.2c0.3,0.1,0.6,0.4,0.8,0.7c0.2,0.3,0.3,0.8,0.3,1.3V76
			c0,0.6-0.1,1-0.3,1.3c-0.2,0.3-0.4,0.6-0.8,0.7c-0.3,0.2-0.7,0.3-1.2,0.3c-0.4,0-0.9,0-1.5,0h-1.8c-0.5,0-1,0-1.4,0
			c-0.5,0-0.8-0.1-1.2-0.3c-0.3-0.2-0.6-0.4-0.7-0.7c-0.2-0.3-0.3-0.8-0.3-1.3V34.8z M40.8,34.8c0-0.5,0.1-1,0.3-1.3
			c0.2-0.3,0.5-0.6,0.8-0.7c0.4-0.1,0.7-0.2,1.2-0.2c0.4,0,0.9-0.1,1.5-0.1h1.6c0.5,0,1,0,1.5,0.1c0.5,0,0.9,0.1,1.2,0.2
			c0.3,0.1,0.6,0.4,0.8,0.7c0.2,0.3,0.3,0.8,0.3,1.3V76c0,0.6-0.1,1-0.3,1.3c-0.2,0.3-0.4,0.6-0.8,0.7c-0.3,0.2-0.7,0.3-1.2,0.3
			c-0.5,0-1,0-1.5,0h-1.6c-0.5,0-1,0-1.5,0c-0.4,0-0.8-0.1-1.2-0.3c-0.4-0.2-0.6-0.4-0.8-0.7c-0.2-0.3-0.3-0.8-0.3-1.3V34.8z
			 M27.1,34.8c0-0.5,0.1-1,0.3-1.3c0.2-0.3,0.4-0.6,0.8-0.7c0.4-0.1,0.8-0.2,1.2-0.2c0.5,0,0.9-0.1,1.4-0.1h1.7c0.5,0,1,0,1.5,0.1
			c0.4,0,0.8,0.1,1.2,0.2c0.4,0.1,0.6,0.4,0.8,0.7c0.2,0.3,0.3,0.8,0.3,1.3V76c0,0.6-0.1,1-0.3,1.3c-0.2,0.3-0.5,0.6-0.8,0.7
			c-0.4,0.2-0.8,0.3-1.2,0.3c-0.4,0-0.9,0-1.5,0h-1.7c-0.5,0-1,0-1.4,0c-0.5,0-0.9-0.1-1.2-0.3c-0.4-0.2-0.6-0.4-0.8-0.7
			c-0.2-0.3-0.3-0.8-0.3-1.3V34.8z M13.3,9.7v9.2h64.1V9.7H13.3z"/>
	</g>
</g>
</svg>
