<?xml version="1.0" encoding="utf-8"?>
<!-- Generator: Adobe Illustrator 19.1.0, SVG Export Plug-In . SVG Version: 6.00 Build 0)  -->
<svg version="1.1" id="Layer_1" xmlns="http://www.w3.org/2000/svg" xmlns:xlink="http://www.w3.org/1999/xlink" x="0px" y="0px"
	 viewBox="0 0 132 132" style="enable-background:new 0 0 132 132;" xml:space="preserve">
<rect x="2.2" y="2.2" style="fill-rule:evenodd;clip-rule:evenodd;fill:#DFDFDF;stroke:#DFDFDF;stroke-miterlimit:10;" width="127.3" height="125.3"/>
<g>
	<path style="fill-rule:evenodd;clip-rule:evenodd;fill:#FFFFFF;" d="M1.3,130.8V1.3h129.5v129.5H1.3z M5.8,125.2h120.3V6.8H5.8
		V125.2z"/>
	<path style="fill:#CCCCCC;" d="M130.5,1.5v129H1.5V1.5H130.5 M5.6,125.4h0.5h119.8h0.5v-0.5V7.1V6.6h-0.5H6.1H5.6v0.5v117.8V125.4
		 M131,1H1v130h130V1L131,1z M6.1,124.9V7.1h119.8v117.8H6.1L6.1,124.9z"/>
</g>
<g>
	<path style="fill:#333333;" d="M48.3,67h-2.5V52.8h2.5V67z"/>
	<path style="fill:#333333;" d="M62.2,67h-2.5l-6.3-10.1V67h-2.5V52.8h2.5l6.4,10.1V52.8h2.5V67z"/>
	<path style="fill:#333333;" d="M72.2,63.3c0-0.6-0.2-1.1-0.7-1.4s-1.2-0.7-2.4-1s-2.1-0.7-2.7-1.2c-1.3-0.8-1.9-1.9-1.9-3.2
		c0-1.1,0.5-2.1,1.4-2.8s2.1-1.1,3.6-1.1c1,0,1.9,0.2,2.6,0.5s1.4,0.9,1.8,1.6s0.7,1.4,0.7,2.2h-2.5c0-0.7-0.2-1.3-0.7-1.7
		c-0.5-0.4-1.1-0.6-2-0.6c-0.8,0-1.4,0.2-1.9,0.5c-0.4,0.3-0.7,0.8-0.7,1.4c0,0.5,0.2,1,0.7,1.3c0.5,0.3,1.3,0.7,2.4,1
		s2,0.7,2.7,1.1s1.2,0.9,1.5,1.4s0.5,1.2,0.5,1.9c0,1.2-0.5,2.1-1.4,2.8s-2.1,1-3.7,1c-1,0-2-0.2-2.8-0.6s-1.5-0.9-2-1.6
		S64,63.6,64,62.7h2.5c0,0.8,0.3,1.4,0.8,1.9s1.3,0.7,2.3,0.7c0.9,0,1.5-0.2,1.9-0.5S72.2,63.9,72.2,63.3z"/>
	<path style="fill:#333333;" d="M78.9,61.7V67h-2.5V52.8h5.4c1.6,0,2.8,0.4,3.8,1.2S87,56,87,57.3c0,1.4-0.5,2.5-1.4,3.3
		c-0.9,0.8-2.2,1.2-3.8,1.2H78.9z M78.9,59.7h3c0.9,0,1.5-0.2,2-0.6s0.7-1,0.7-1.8c0-0.8-0.2-1.4-0.7-1.8s-1.1-0.7-1.9-0.7h-3V59.7z
		"/>
	<path style="fill:#333333;" d="M32.1,82.7V88h-2.5V73.8H35c1.6,0,2.8,0.4,3.8,1.2s1.4,1.9,1.4,3.3c0,1.4-0.5,2.5-1.4,3.3
		c-0.9,0.8-2.2,1.2-3.8,1.2H32.1z M32.1,80.7h3c0.9,0,1.5-0.2,2-0.6s0.7-1,0.7-1.8c0-0.8-0.2-1.4-0.7-1.8s-1.1-0.7-1.9-0.7h-3V80.7z
		"/>
	<path style="fill:#333333;" d="M53.3,88h-2.5v-6.3h-6.4V88H42V73.8h2.5v5.9h6.4v-5.9h2.5V88z"/>
	<path style="fill:#333333;" d="M67.1,81.3c0,1.4-0.2,2.6-0.7,3.7s-1.2,1.9-2.1,2.4s-1.9,0.8-3.1,0.8c-1.2,0-2.2-0.3-3.1-0.8
		S56.6,86,56.1,85s-0.7-2.2-0.7-3.6v-0.8c0-1.4,0.2-2.6,0.7-3.7s1.2-1.9,2.1-2.4s1.9-0.8,3.1-0.8s2.2,0.3,3.1,0.8s1.6,1.4,2.1,2.4
		s0.7,2.3,0.7,3.6V81.3z M64.7,80.5c0-1.6-0.3-2.8-0.9-3.6s-1.4-1.3-2.5-1.3c-1.1,0-1.9,0.4-2.5,1.3s-0.9,2-0.9,3.5v0.8
		c0,1.6,0.3,2.8,0.9,3.6s1.5,1.3,2.5,1.3c1.1,0,1.9-0.4,2.5-1.3s0.9-2.1,0.9-3.7V80.5z"/>
	<path style="fill:#333333;" d="M78.6,75.8h-4.4V88h-2.5V75.8h-4.4v-2h11.3V75.8z"/>
	<path style="fill:#333333;" d="M91.2,81.3c0,1.4-0.2,2.6-0.7,3.7s-1.2,1.9-2.1,2.4s-1.9,0.8-3.1,0.8c-1.2,0-2.2-0.3-3.1-0.8
		S80.6,86,80.1,85s-0.7-2.2-0.7-3.6v-0.8c0-1.4,0.2-2.6,0.7-3.7s1.2-1.9,2.1-2.4s1.9-0.8,3.1-0.8s2.2,0.3,3.1,0.8s1.6,1.4,2.1,2.4
		s0.7,2.3,0.7,3.6V81.3z M88.7,80.5c0-1.6-0.3-2.8-0.9-3.6s-1.4-1.3-2.5-1.3c-1.1,0-1.9,0.4-2.5,1.3s-0.9,2-0.9,3.5v0.8
		c0,1.6,0.3,2.8,0.9,3.6s1.5,1.3,2.5,1.3c1.1,0,1.9-0.4,2.5-1.3s0.9-2.1,0.9-3.7V80.5z"/>
	<path style="fill:#333333;" d="M100.7,84.3c0-0.6-0.2-1.1-0.7-1.4s-1.2-0.7-2.4-1s-2.1-0.7-2.7-1.2c-1.3-0.8-1.9-1.9-1.9-3.2
		c0-1.1,0.5-2.1,1.4-2.8s2.1-1.1,3.6-1.1c1,0,1.9,0.2,2.6,0.5s1.4,0.9,1.8,1.6s0.7,1.4,0.7,2.2h-2.5c0-0.7-0.2-1.3-0.7-1.7
		c-0.5-0.4-1.1-0.6-2-0.6c-0.8,0-1.4,0.2-1.9,0.5c-0.4,0.3-0.7,0.8-0.7,1.4c0,0.5,0.2,1,0.7,1.3c0.5,0.3,1.3,0.7,2.4,1
		s2,0.7,2.7,1.1s1.2,0.9,1.5,1.4s0.5,1.2,0.5,1.9c0,1.2-0.5,2.1-1.4,2.8s-2.1,1-3.7,1c-1,0-2-0.2-2.8-0.6s-1.5-0.9-2-1.6
		s-0.7-1.5-0.7-2.3H95c0,0.8,0.3,1.4,0.8,1.9s1.3,0.7,2.3,0.7c0.9,0,1.5-0.2,1.9-0.5S100.7,84.9,100.7,84.3z"/>
</g>
</svg>
