<?xml version="1.0" encoding="utf-8"?>
<!-- Generator: Adobe Illustrator 19.1.0, SVG Export Plug-In . SVG Version: 6.00 Build 0)  -->
<svg version="1.1" id="Layer_1" xmlns="http://www.w3.org/2000/svg" xmlns:xlink="http://www.w3.org/1999/xlink" x="0px" y="0px"
	 viewBox="0 0 88 88" style="enable-background:new 0 0 88 88;" xml:space="preserve">
<g>
	<g>
		<path  d="M27.9,5.1c-0.2,0-0.4,0.1-0.6,0.3l-7.1,9.3l-5-4.1c-0.2-0.2-0.5-0.2-0.8-0.1l-3.3,4
			c0,0.1,0,0.3,0,0.4l5.4,4.4l4.3,3.5c0.2,0,0.3,0,0.5-0.1l3.4-4.4l7.4-9.7c0-0.1,0-0.3,0-0.4L27.9,5.1z M27.9,35.7
			c-0.2,0-0.4,0.1-0.6,0.3l-7.1,9.3l-5-4.1c-0.2-0.2-0.5-0.2-0.8-0.1l-3.3,4c0,0.1,0,0.3,0,0.4l5.4,4.4l4.3,3.5c0.2,0,0.3,0,0.5-0.1
			l3.4-4.4l7.4-9.7c0-0.1,0-0.3,0-0.4L27.9,35.7z M27.9,66.2c-0.2,0-0.4,0.1-0.6,0.3l-7.1,9.3l-5-4.1c-0.2-0.2-0.5-0.2-0.8-0.1
			l-3.3,4c0,0.1,0,0.3,0,0.4l5.4,4.4L21,84c0.2,0,0.3,0,0.5-0.1l3.4-4.4l7.4-9.7c0-0.1,0-0.3,0-0.4L27.9,66.2z M36.8,72.8L35,75.1
			v1.4h41.8v-7.6H40L36.8,72.8z M36.8,42.7L35,45v1.3h41.8v-7.6H40.2L36.8,42.7z M39.7,8.4l-2.8,3.4L35,14.1V16h41.8V8.4H39.7z"/>
	</g>
</g>
</svg>
