<?xml version="1.0" encoding="utf-8"?>
<!-- Generator: Adobe Illustrator 19.1.0, SVG Export Plug-In . SVG Version: 6.00 Build 0)  -->
<svg version="1.1" id="Layer_1" xmlns="http://www.w3.org/2000/svg" xmlns:xlink="http://www.w3.org/1999/xlink" x="0px" y="0px"
	 viewBox="0 0 88 88" style="enable-background:new 0 0 88 88;" xml:space="preserve">
<g>
	<rect x="56.2" y="15"  width="6.8" height="6.8"/>
	<rect x="14.8" y="1.2"  width="6.8" height="6.8"/>
	<rect x="1.2" y="1.2"  width="6.8" height="6.8"/>
	<path  d="M49,29.1V7.8h21.2v21.2H49 M42.5,35.5h34.1V1.4H42.5V35.5L42.5,35.5z"/>
	<rect x="14.9" y="56.2"  width="6.8" height="6.8"/>
	<path  d="M7.6,70.2V49h21.2v21.2H7.6 M1.2,76.6h34.1V42.5H1.2V76.6L1.2,76.6z"/>
	<polygon  points="9,36 9,30 14,30 14,36 40,36 40,35.7 40,22.2 40,1 30,1 30,23 22,23 22,14 8.4,14 1,14 
		1,28.7 1,36 	"/>
</g>
<polygon  points="82,58 74.8,58 69,58 69,55.1 69,48 69,41 58,41 58,48 58,55.1 58,58 55.1,58 48,58 41,58 
	41,69 48,69 55.1,69 58,69 58,74.8 58,82 58,87 69,87 69,82 69,74.8 69,69 74.8,69 82,69 87,69 87,58 "/>
</svg>
