<?xml version="1.0" encoding="utf-8"?>
<!-- Generator: Adobe Illustrator 19.1.0, SVG Export Plug-In . SVG Version: 6.00 Build 0)  -->
<svg version="1.1" id="Layer_1" xmlns="http://www.w3.org/2000/svg" xmlns:xlink="http://www.w3.org/1999/xlink" x="0px" y="0px"
	 viewBox="0 0 88 88" style="enable-background:new 0 0 88 88;" xml:space="preserve">
<g>
	<path  d="M87.5,44.1c0,23.4-19,42.4-42.4,42.4c-7.7,0-15-2.1-21.2-5.7c0,0,31.8-10.1,31.8-36.2
		S35.4,2.8,35.4,2.8c3.1-0.7,6.3-1.1,9.7-1.1C68.5,1.7,87.5,20.7,87.5,44.1z"/>
	<path  d="M30.5,41.2c-0.2-0.4-1-0.8-1.6-0.9c-2.5-0.4-4.9-0.7-7.4-1.1c-0.5-0.1-1.1-0.6-1.3-1
		c-1.2-2.2-2.2-4.5-3.4-6.7c-0.3-0.5-0.9-1.1-1.3-1.1c-0.5,0-1.1,0.6-1.4,1.1c-1.2,2.2-2.2,4.5-3.4,6.7c-0.3,0.5-0.9,0.9-1.5,1
		c-2.4,0.4-4.9,0.7-7.4,1.1c-0.5,0.1-1.3,0.5-1.4,0.9c-0.1,0.4,0.2,1.2,0.6,1.6c1.6,1.7,3.3,3.4,5.1,4.9c0.9,0.8,1,1.5,0.8,2.6
		c-0.4,2.2-0.8,4.4-1.1,6.6c-0.1,0.6,0,1.6,0.4,1.9c0.4,0.3,1.3,0.1,1.9-0.2c2.2-1.1,4.3-2.3,6.5-3.3c0.5-0.2,1.2-0.2,1.7,0
		c2.3,1.1,4.6,2.4,6.8,3.6c1.3,0.7,2.2,0.1,2.1-1.6c-0.4-2.2-0.8-4.6-1.3-7.1c-0.2-1,0-1.7,0.7-2.4c1.8-1.6,3.4-3.2,5.1-5
		C30.3,42.4,30.7,41.6,30.5,41.2z"/>
</g>
</svg>
