<?xml version="1.0" encoding="utf-8"?>
<!-- Generator: Adobe Illustrator 19.1.0, SVG Export Plug-In . SVG Version: 6.00 Build 0)  -->
<svg version="1.1" id="Layer_1" xmlns="http://www.w3.org/2000/svg" xmlns:xlink="http://www.w3.org/1999/xlink" x="0px" y="0px"
	 viewBox="0 0 132 132" style="enable-background:new 0 0 132 132;" xml:space="preserve">
<g>
	
		<rect x="2.2" y="2.2" style="fill-rule:evenodd;clip-rule:evenodd;fill:#DFDFDF;stroke:#DFDFDF;stroke-miterlimit:10;" width="127.3" height="125.3"/>
	<g>
		<path style="fill-rule:evenodd;clip-rule:evenodd;fill:#FFFFFF;" d="M1.3,130.8V1.3h129.5v129.5H1.3z M5.8,125.2h120.3V6.8H5.8
			V125.2z"/>
		<path  d="M130.5,1.5v129H1.5V1.5H130.5 M5.6,125.4h0.5h119.8h0.5v-0.5V7.1V6.6h-0.5H6.1H5.6v0.5v117.8V125.4
			 M131,1H1v130h130V1L131,1z M6.1,124.9V7.1h119.8v117.8H6.1L6.1,124.9z"/>
	</g>
</g>
<g>
	<circle  cx="77.2" cy="55.5" r="5.5"/>
	<path  d="M55.6,56.2L43.7,79.8l0,0L43.6,80l0,0c-0.1,0.2-0.1,0.4-0.1,0.5c0,0.7,0.6,1.4,1.4,1.4h42.3
		c0.8,0,1.4-0.6,1.4-1.4c0-0.2,0-0.4-0.1-0.6L88,79.5l-7.8-10.3c0-0.1-0.1-0.1-0.1-0.2c-0.5-0.6-1.3-1-2.1-1c-0.7,0-1.3,0.3-1.8,0.7
		L75.9,69l0,0l-2.4,2.4c-0.5,0.5-1.2,0.8-1.9,0.8c-0.8,0-1.6-0.4-2.1-0.9c-0.1-0.1-0.2-0.2-0.2-0.3L57.9,55.8c-0.4-0.5-1-0.5-1-0.5
		S56,55.3,55.6,56.2z"/>
</g>
</svg>
