<?xml version="1.0" encoding="utf-8"?>
<!-- Generator: Adobe Illustrator 19.1.0, SVG Export Plug-In . SVG Version: 6.00 Build 0)  -->
<svg version="1.1" id="Layer_1" xmlns="http://www.w3.org/2000/svg" xmlns:xlink="http://www.w3.org/1999/xlink" x="0px" y="0px"
	 viewBox="0 0 88 88" style="enable-background:new 0 0 88 88;" xml:space="preserve">
<g>
	<polygon  points="62.7,4 62.6,4 18.1,4 9,13 72.8,13 	"/>
</g>
<polygon  points="62.7,4 62.6,4 18.1,4 9,13 72.8,13 "/>
<polygon  points="64,1 16.9,1 3,16.4 3,81 65.3,81 60,76 8,76 8,18 74,18 74,63.6 79,68.9 79,16.3 "/>
<path  d="M65.7,62.8c-0.2-0.2-0.3-0.3-0.5-0.4c5.6-8.2,4.8-19.5-2.5-26.8c-4-4-9.3-6.2-14.9-6.2
	S36.9,31.7,33,35.7c-4,4-6.2,9.3-6.2,14.9c0,5.6,2.2,10.9,6.2,14.9c4,4,9.3,6.2,14.9,6.2c4.5,0,8.7-1.4,12.3-4
	c0.1,0.2,0.2,0.3,0.4,0.4l13.6,13.6c0.7,0.7,1.7,1.1,2.6,1.1c0.9,0,1.9-0.4,2.6-1.1c1.4-1.4,1.4-3.8,0-5.2L65.7,62.8z M59.6,62.3
	c-3.2,3.2-7.5,4.9-11.8,4.9c-4.3,0-8.5-1.6-11.8-4.9c-6.5-6.5-6.5-17,0-23.5c3.2-3.2,7.5-4.9,11.8-4.9c4.3,0,8.5,1.6,11.8,4.9
	C66.1,45.3,66.1,55.8,59.6,62.3z"/>
</svg>
