<?xml version="1.0" encoding="utf-8"?>
<!-- Generator: Adobe Illustrator 19.1.0, SVG Export Plug-In . SVG Version: 6.00 Build 0)  -->
<svg version="1.1" id="Layer_1" xmlns="http://www.w3.org/2000/svg" xmlns:xlink="http://www.w3.org/1999/xlink" x="0px" y="0px"
	 viewBox="0 0 88 88" style="enable-background:new 0 0 88 88;" xml:space="preserve">
<g>
	<path  d="M0.5,17.9v-7.6h11.3v7.6H0.5z M84.2,21.8c1,0,1.8,0.4,2.4,1.1c0.6,0.7,0.9,1.5,0.9,2.5v34.3
		c0,0.5-0.1,1-0.3,1.4c-0.2,0.4-0.4,0.8-0.8,1.2c-0.3,0.3-0.7,0.6-1.1,0.8c-0.4,0.2-0.9,0.3-1.4,0.3H57.1c-0.2,2.6-0.9,5.1-2.1,7.4
		c-1.1,2.3-2.6,4.3-4.4,6c-1.8,1.7-3.9,3-6.3,4c-2.4,1-4.9,1.5-7.6,1.5H25.1c-2.9,0-5.6-0.5-8.1-1.6c-2.5-1.1-4.7-2.6-6.6-4.5
		C8.5,74.2,7,72,5.9,69.5c-1.1-2.5-1.6-5.2-1.6-8.1V36.8H0.5V21.7h11.3v15.1H8.1v23.5l0.2,3c0.2,2.1,0.8,4.1,1.8,5.9
		c1,1.8,2.2,3.4,3.7,4.8c1.5,1.4,3.2,2.4,5.2,3.2c1.9,0.8,4,1.2,6.2,1.2h11.3c2.2,0,4.2-0.4,6.2-1.2c1.9-0.8,3.7-1.8,5.1-3.2
		c1.5-1.4,2.7-3,3.7-4.8c1-1.8,1.6-3.8,1.8-5.9h-30c-0.5,0-1-0.1-1.4-0.3s-0.9-0.4-1.2-0.8c-0.4-0.3-0.6-0.7-0.9-1.2
		c-0.2-0.4-0.3-0.9-0.3-1.4V25.4c0-0.5,0.1-1,0.3-1.4c0.2-0.4,0.5-0.8,0.9-1.1s0.8-0.6,1.2-0.8c0.5-0.2,1-0.3,1.4-0.3h3.1
		c0.4-0.7,0.8-1.3,1.1-1.9c0.3-0.5,0.6-0.9,0.8-1.3c0.3-0.4,0.4-0.6,0.5-0.7H36c0.1,0,0.3,0.3,0.6,0.7c0.3,0.4,0.7,0.8,1,1.3
		c0.4,0.6,0.9,1.2,1.4,1.9H84.2z M51.6,60c2.4,0,4.7-0.5,6.8-1.4c2.1-0.9,4-2.2,5.6-3.8s2.8-3.4,3.8-5.6c0.9-2.1,1.4-4.4,1.4-6.8
		c0-2.4-0.5-4.7-1.4-6.8c-0.9-2.1-2.2-4-3.8-5.6s-3.4-2.8-5.6-3.8C56.3,25.5,54,25,51.6,25c-2.4,0-4.7,0.5-6.8,1.4
		c-2.1,0.9-4,2.2-5.6,3.8s-2.8,3.4-3.8,5.6c-0.9,2.1-1.4,4.4-1.4,6.8c0,2.4,0.5,4.7,1.4,6.8c0.9,2.1,2.2,4,3.8,5.6s3.4,2.8,5.6,3.8
		C46.9,59.6,49.1,60,51.6,60z M51.6,29.8c1.8,0,3.4,0.3,5,1c1.6,0.7,2.9,1.6,4.1,2.8c1.2,1.2,2.1,2.5,2.8,4.1c0.7,1.6,1,3.2,1,5
		c0,1.8-0.3,3.5-1,5c-0.7,1.6-1.6,2.9-2.8,4.1c-1.2,1.2-2.5,2.1-4.1,2.7c-1.6,0.7-3.2,1-5,1c-1.8,0-3.5-0.3-5-1
		c-1.6-0.7-2.9-1.6-4.1-2.7c-1.2-1.2-2.1-2.5-2.7-4.1c-0.7-1.6-1-3.2-1-5c0-1.8,0.3-3.4,1-5c0.7-1.6,1.6-2.9,2.7-4.1
		c1.2-1.2,2.5-2.1,4.1-2.8C48.1,30.1,49.8,29.8,51.6,29.8z M51.6,51.7c1.2,0,2.4-0.2,3.5-0.7c1.1-0.5,2.1-1.1,2.9-1.9
		c0.8-0.8,1.5-1.8,2-2.9c0.5-1.1,0.7-2.3,0.7-3.5c0-1.2-0.2-2.4-0.7-3.5c-0.5-1.1-1.1-2.1-2-2.9s-1.8-1.5-2.9-2
		c-1.1-0.5-2.3-0.7-3.5-0.7c-1.3,0-2.5,0.2-3.6,0.7c-1.1,0.5-2.1,1.1-2.9,2s-1.5,1.8-1.9,2.9c-0.5,1.1-0.7,2.3-0.7,3.5
		c0,1.2,0.2,2.4,0.7,3.5c0.5,1.1,1.1,2.1,1.9,2.9c0.8,0.8,1.8,1.5,2.9,1.9C49.1,51.4,50.3,51.7,51.6,51.7z M79.9,29.3v-3.8h-7.6v3.8
		H79.9z"/>
</g>
</svg>
