<?xml version="1.0" encoding="utf-8"?>
<!-- Generator: Adobe Illustrator 19.1.0, SVG Export Plug-In . SVG Version: 6.00 Build 0)  -->
<svg version="1.1" id="Layer_1" xmlns="http://www.w3.org/2000/svg" xmlns:xlink="http://www.w3.org/1999/xlink" x="0px" y="0px"
	 viewBox="0 0 44 44" style="enable-background:new 0 0 44 44;" xml:space="preserve">
<path d="M22,1.1c-11.6,0-21,9.4-21,21s9.4,21,21,21s21-9.4,21-21S33.6,1.1,22,1.1z M22.1,42.2
	C11,42.2,2,33.2,2,22.1S11,2,22.1,2c11.1,0,20.1,9,20.1,20.1S33.2,42.2,22.1,42.2z"/>
<path style="fill-rule:evenodd;clip-rule:evenodd;" d="M22,10.5c6.3,0,11.5,5.1,11.5,11.5c0,6.3-5.1,11.5-11.5,11.5
	S10.5,28.3,10.5,22C10.5,15.7,15.7,10.5,22,10.5z"/>
</svg>
