<?xml version="1.0" encoding="utf-8"?>
<!-- Generator: Adobe Illustrator 19.1.0, SVG Export Plug-In . SVG Version: 6.00 Build 0)  -->
<svg version="1.1" id="Layer_1" xmlns="http://www.w3.org/2000/svg" xmlns:xlink="http://www.w3.org/1999/xlink" x="0px" y="0px"
	 viewBox="0 0 88 88" style="enable-background:new 0 0 88 88;" xml:space="preserve">
<g>
	<g>
		<g>
			<path style="fill:#2A2A2A;" d="M44,1C20.3,1,1,20.3,1,44s19.3,43,43,43s43-19.3,43-43S67.7,1,44,1z M44,82.6
				C22.7,82.6,5.4,65.3,5.4,44S22.7,5.4,44,5.4S82.6,22.7,82.6,44S65.3,82.6,44,82.6z"/>
		</g>
	</g>
	<path style="fill:#2A2A2A;" d="M18.7,35.9l2.1,5.1l8.1-3.3l6.4,4.1l-2.4,1l-3.2,1.4l5.6,2.3l-6.4,4.1l-8.1-3.3l-2.1,5.1l4.5,1.9
		l-7.6,4.9l3,4.6l7.7-4.9l-0.2,5.1l5.5,0.2l0.4-8.9l5.9-3.8l-0.2,4.2l1.2-0.8l2.4-1.7l0,7.3l-7.1,5l3.2,4.5l4-2.8l0,9l5.5,0l0-9.1
		l4.2,2.9l3.2-4.5l-7.3-5.1l0-7.3l2.6,1.8l1.2,0.8l-0.2-4.2l5.8,3.7l0.4,8.9l5.5-0.2l-0.2-5.1l7.7,4.9l3-4.6l-7.6-4.8l4.5-1.9
		l-2.1-5.1l-8.1,3.3l-6.3-4l5.7-2.3l-3.2-1.4l-2.6-1.1l6.3-4l8.1,3.3l2.1-5.1l-4.5-1.9l7.6-4.8l-3-4.6l-7.7,4.9l0.2-5.1l-5.5-0.2
		l-0.4,8.9l-5.8,3.7l0.3-4.4l-1.2,0.8l-2.5,1.8l0-7.2l7.1-5l-3.2-4.5l-4,2.8l0-9l-5.5,0l0,9.1l-4.2-2.9L34,22.9l7.3,5.1l0,7
		l-2.5-1.7l-1.2-0.8l0.3,4.5l-5.9-3.8l-0.4-8.9L26,24.4l0.2,5.1l-7.7-4.9l-3,4.6l7.6,4.8L18.7,35.9z"/>
</g>
</svg>
