<?xml version="1.0" encoding="utf-8"?>
<!-- Generator: Adobe Illustrator 19.1.0, SVG Export Plug-In . SVG Version: 6.00 Build 0)  -->
<svg version="1.1" id="Layer_1" xmlns="http://www.w3.org/2000/svg" xmlns:xlink="http://www.w3.org/1999/xlink" x="0px" y="0px"
	 viewBox="0 0 88 88" style="enable-background:new 0 0 88 88;" xml:space="preserve">
<path  d="M51.3,47.3c-0.2,0-0.4,0.1-0.6,0.3l-7.1,9.3l-5-4c-0.2-0.2-0.5-0.2-0.8-0.1l-3.3,4c0,0.1,0,0.3,0,0.4
	l5.4,4.4l4.3,3.5c0.2,0,0.3,0,0.5-0.1l3.4-4.4l7.4-9.7c0-0.1,0-0.3,0-0.4L51.3,47.3z"/>
<path  d="M62.4,67.2c-0.2-0.2-0.3-0.3-0.5-0.4c5.6-8.1,4.8-19.3-2.4-26.6c-3.9-3.9-9.2-6.1-14.8-6.1
	s-10.8,2.2-14.8,6.1c-3.9,3.9-6.1,9.2-6.1,14.8c0,5.6,2.2,10.8,6.1,14.8c3.9,3.9,9.2,6.1,14.8,6.1c4.4,0,8.7-1.4,12.2-4
	c0.1,0.2,0.2,0.3,0.4,0.4l13.5,13.6c0.7,0.7,1.6,1.1,2.6,1.1s1.9-0.4,2.6-1.1c1.4-1.4,1.4-3.7,0-5.1L62.4,67.2z M56.4,66.7
	c-3.2,3.2-7.4,4.8-11.7,4.8c-4.2,0-8.4-1.6-11.7-4.8c-6.4-6.4-6.4-16.9,0-23.3c3.2-3.2,7.4-4.8,11.7-4.8c4.2,0,8.4,1.6,11.7,4.8
	C62.8,49.8,62.8,60.2,56.4,66.7z"/>
<path  d="M15,82V5h32v16c0,3.2,3.3,6,6.7,6H72v43.6l5,5.1v-51L50.4,0H10v87h54.5l-5.1-5H15z"/>
</svg>
