<?xml version="1.0" encoding="utf-8"?>
<!-- Generator: Adobe Illustrator 19.1.0, SVG Export Plug-In . SVG Version: 6.00 Build 0)  -->
<svg version="1.1" id="Layer_1" xmlns="http://www.w3.org/2000/svg" xmlns:xlink="http://www.w3.org/1999/xlink" x="0px" y="0px"
	 viewBox="0 0 132 132" style="enable-background:new 0 0 132 132;" xml:space="preserve">
<circle style="fill-rule:evenodd;clip-rule:evenodd;fill:#FFFFFF;" cx="65" cy="65" r="64"/>
<path style="fill-rule:evenodd;clip-rule:evenodd;fill:#CC0000;" d="M65,1C29.7,1,1,29.7,1,65s28.7,64,64,64s64-28.7,64-64
	S100.3,1,65,1z M65,126.5C31.1,126.5,3.5,99,3.5,65C3.5,31.1,31.1,3.5,65,3.5c33.9,0,61.5,27.5,61.5,61.5
	C126.5,99,98.9,126.5,65,126.5z"/>
<g>
	<g>
		<path style="fill:#CC0000;" d="M91.8,49.7H81l-1.3-3.3C79.4,45.5,78.6,43,76,43H55c-1.2,0-2.9,0.6-3.7,3.5L50,49.7h-0.6
			c-0.3-1.7-1.7-3-3.5-3h-4.4c-1.8,0-3.3,1.4-3.5,3.1c-2.2,0.5-3.8,2.5-3.8,4.9v28.1c0,2.8,2.2,5,5,5h52.5c2.7,0,5-2.2,5-5V54.7
			C96.7,52,94.5,49.7,91.8,49.7z"/>
	</g>
</g>
<g>
	<g>
		<path style="fill:#FFFFFF;" d="M64.5,51.5c-8.9,0-16.1,7.3-16.1,16.2c0,8.9,7.2,16.2,16.1,16.2s16.1-7.3,16.1-16.2
			C80.6,58.7,73.4,51.5,64.5,51.5z M64.5,81.8c-7.7,0-14-6.3-14-14.1c0-7.8,6.3-14.1,14-14.1c7.7,0,14,6.3,14,14.1
			C78.5,75.4,72.2,81.8,64.5,81.8z M64.5,56.6c-6.1,0-11,4.9-11,11c0,6.1,4.9,11,11,11c6.1,0,11-4.9,11-11
			C75.5,61.6,70.6,56.6,64.5,56.6z M40.4,53.2c-1.2,0-2.1,1-2.1,2.2c0,1.2,1,2.2,2.1,2.2c1.2,0,2.1-1,2.1-2.2
			C42.5,54.2,41.5,53.2,40.4,53.2z M91.3,53.8h-5.6c-0.9,0-1.5,0.7-1.5,1.6c0,0.9,0.7,1.6,1.5,1.6h5.6c0.8,0,1.5-0.7,1.5-1.6
			C92.8,54.5,92.1,53.8,91.3,53.8z"/>
	</g>
</g>
</svg>
