<?xml version="1.0" encoding="utf-8"?>
<!-- Generator: Adobe Illustrator 19.1.0, SVG Export Plug-In . SVG Version: 6.00 Build 0)  -->
<svg version="1.1" id="Layer_1" xmlns="http://www.w3.org/2000/svg" xmlns:xlink="http://www.w3.org/1999/xlink" x="0px" y="0px"
	 viewBox="0 0 132 132" style="enable-background:new 0 0 132 132;" xml:space="preserve">
<g>
	<polygon style="fill:#DDDDDD;" points="131,131 1,131 1,1 91.2,1 131,38.7 	"/>
	<path style="opacity:0.2;" d="M130.7,38.6h-29.6c-5.5,0-9.9-4.2-9.9-9.4V1L130.7,38.6z"/>
</g>
<g>
	<path style="fill:#333333;" d="M51.7,67h-2.5l-6.3-10.1V67h-2.5V52.8h2.5l6.4,10.1V52.8h2.5V67z"/>
	<path style="fill:#333333;" d="M57.4,52.8l4.1,10.9l4.1-10.9h3.2V67h-2.5v-4.7l0.2-6.3l-4.2,11h-1.8l-4.2-10.9l0.2,6.3V67h-2.5
		V52.8H57.4z"/>
	<path style="fill:#333333;" d="M79.5,61h-5.7v6h-2.5V52.8h9v2h-6.6V59h5.7V61z"/>
	<path style="fill:#333333;" d="M92.8,62.4c-0.1,1.5-0.7,2.7-1.7,3.5s-2.3,1.3-3.9,1.3c-1.1,0-2.1-0.3-3-0.8s-1.5-1.3-2-2.3
		s-0.7-2.1-0.7-3.4v-1.3c0-1.3,0.2-2.5,0.7-3.5s1.2-1.8,2-2.4s1.9-0.8,3.1-0.8c1.6,0,2.8,0.4,3.8,1.3s1.5,2.1,1.7,3.6h-2.5
		c-0.1-1-0.4-1.8-0.9-2.2s-1.2-0.7-2.1-0.7c-1.1,0-1.9,0.4-2.5,1.2s-0.9,1.9-0.9,3.5v1.3c0,1.5,0.3,2.7,0.8,3.5s1.4,1.2,2.4,1.2
		c1,0,1.7-0.2,2.2-0.7s0.8-1.2,0.9-2.2H92.8z"/>
	<path style="fill:#333333;" d="M23.1,88h-2.5V73.8h2.5V88z"/>
	<path style="fill:#333333;" d="M37,88h-2.5l-6.3-10.1V88h-2.5V73.8h2.5l6.4,10.1V73.8H37V88z"/>
	<path style="fill:#333333;" d="M47,84.3c0-0.6-0.2-1.1-0.7-1.4s-1.2-0.7-2.4-1c-1.1-0.3-2.1-0.7-2.7-1.2c-1.3-0.8-1.9-1.9-1.9-3.2
		c0-1.1,0.5-2.1,1.4-2.8s2.1-1.1,3.6-1.1c1,0,1.9,0.2,2.6,0.5s1.4,0.9,1.8,1.6s0.7,1.4,0.7,2.2H47c0-0.7-0.2-1.3-0.7-1.7
		c-0.5-0.4-1.1-0.6-2-0.6c-0.8,0-1.4,0.2-1.9,0.5c-0.4,0.3-0.7,0.8-0.7,1.4c0,0.5,0.2,1,0.7,1.3c0.5,0.3,1.3,0.7,2.4,1
		s2,0.7,2.7,1.1s1.2,0.9,1.5,1.4s0.5,1.2,0.5,1.9c0,1.2-0.5,2.1-1.4,2.8s-2.1,1-3.7,1c-1,0-2-0.2-2.8-0.6c-0.9-0.4-1.5-0.9-2-1.6
		s-0.7-1.5-0.7-2.3h2.5c0,0.8,0.3,1.4,0.8,1.9s1.3,0.7,2.3,0.7c0.9,0,1.5-0.2,1.9-0.5S47,84.9,47,84.3z"/>
	<path style="fill:#333333;" d="M53.7,82.7V88h-2.5V73.8h5.4c1.6,0,2.8,0.4,3.8,1.2s1.4,1.9,1.4,3.3c0,1.4-0.5,2.5-1.4,3.3
		c-0.9,0.8-2.2,1.2-3.8,1.2H53.7z M53.7,80.7h3c0.9,0,1.5-0.2,2-0.6s0.7-1,0.7-1.8c0-0.8-0.2-1.4-0.7-1.8s-1.1-0.7-1.9-0.7h-3V80.7z
		"/>
	<path style="fill:#333333;" d="M79,83.4c-0.1,1.5-0.7,2.7-1.7,3.5s-2.3,1.3-3.9,1.3c-1.1,0-2.1-0.3-3-0.8s-1.5-1.3-2-2.3
		s-0.7-2.1-0.7-3.4v-1.3c0-1.3,0.2-2.5,0.7-3.5s1.2-1.8,2-2.4s1.9-0.8,3.1-0.8c1.6,0,2.8,0.4,3.8,1.3s1.5,2.1,1.7,3.6h-2.5
		c-0.1-1-0.4-1.8-0.9-2.2s-1.2-0.7-2.1-0.7c-1.1,0-1.9,0.4-2.5,1.2s-0.9,1.9-0.9,3.5v1.3c0,1.5,0.3,2.7,0.8,3.5s1.4,1.2,2.4,1.2
		c1,0,1.7-0.2,2.2-0.7s0.8-1.2,0.9-2.2H79z"/>
	<path style="fill:#333333;" d="M89.1,81.7h-5.8V86h6.8v2h-9.3V73.8h9.2v2h-6.8v3.9h5.8V81.7z"/>
	<path style="fill:#333333;" d="M97,82.5h-2.8V88h-2.5V73.8h5c1.6,0,2.9,0.4,3.8,1.1s1.3,1.8,1.3,3.2c0,1-0.2,1.7-0.7,2.4
		c-0.5,0.6-1.1,1.1-1.9,1.5l3.2,5.9V88h-2.6L97,82.5z M94.2,80.5h2.5c0.8,0,1.5-0.2,2-0.6s0.7-1,0.7-1.7c0-0.8-0.2-1.4-0.6-1.8
		s-1.1-0.6-1.9-0.6h-2.6V80.5z"/>
	<path style="fill:#333333;" d="M113.6,75.8h-4.4V88h-2.5V75.8h-4.4v-2h11.3V75.8z"/>
</g>
</svg>
