<?xml version="1.0" encoding="utf-8"?>
<!-- Generator: Adobe Illustrator 19.1.0, SVG Export Plug-In . SVG Version: 6.00 Build 0)  -->
<svg version="1.1" id="Layer_1" xmlns="http://www.w3.org/2000/svg" xmlns:xlink="http://www.w3.org/1999/xlink" x="0px" y="0px"
	 viewBox="0 0 88 88" style="enable-background:new 0 0 88 88;" xml:space="preserve">
<g>
	<g>
		<g>
			<path style="fill:#2A2A2A;" d="M44,5.3c21.3,0,38.7,17.4,38.7,38.7S65.3,82.7,44,82.7S5.3,65.3,5.3,44S22.7,5.3,44,5.3 M44,1
				C20.3,1,1,20.3,1,44s19.3,43,43,43s43-19.3,43-43S67.7,1,44,1L44,1z"/>
		</g>
	</g>
	<polygon style="fill:#2A2A2A;" points="62.3,30.9 43.9,49.4 36.9,42.4 31.2,48.1 43.9,60.8 68,36.6 	"/>
	<g>
		<polygon style="fill:#2A2A2A;" points="23.4,65.5 32.7,65.5 35.8,55.7 29.1,49 		"/>
		<polygon style="fill:#2A2A2A;" points="39.9,42.4 43.9,29.8 47.8,42.4 54.2,36 48.6,19.7 39.2,19.7 30,46.2 36.9,39.4 		"/>
		<polygon style="fill:#2A2A2A;" points="52,55.7 55,65.5 64.3,65.5 58.7,49 		"/>
	</g>
</g>
</svg>
