<?xml version="1.0" encoding="utf-8"?>
<!-- Generator: Adobe Illustrator 19.1.0, SVG Export Plug-In . SVG Version: 6.00 Build 0)  -->
<svg version="1.1" id="Layer_1" xmlns="http://www.w3.org/2000/svg" xmlns:xlink="http://www.w3.org/1999/xlink" x="0px" y="0px"
	 viewBox="0 0 88 88" style="enable-background:new 0 0 88 88;" xml:space="preserve">
<path  d="M51.8,37h20.4h10H85V0.8L72.7,13.7C65.2,5.6,54.9,0.6,43.3,0.6C20.5,0.6,2.1,19.9,2.1,43.7
	c0,23.8,18.6,43.7,41.3,43.7c20.8,0,38-17.4,40.9-36.4H73.1c-2.7,14-14.9,25.3-29.6,25.3c-16.7,0-30.2-14.6-30.2-32.3
	s13.5-32.2,30.2-32.2c8.4,0,15.9,3.5,21.4,9.4c0.2,0.4,0.5,1,0.8,1.3L51.8,37z"/>
</svg>
