<?xml version="1.0" encoding="utf-8"?>
<!-- Generator: Adobe Illustrator 19.1.0, SVG Export Plug-In . SVG Version: 6.00 Build 0)  -->
<svg version="1.1" id="Layer_1" xmlns="http://www.w3.org/2000/svg" xmlns:xlink="http://www.w3.org/1999/xlink" x="0px" y="0px"
	 viewBox="0 0 88 88" style="enable-background:new 0 0 88 88;" xml:space="preserve">
<g>
	<g>
		<path  d="M43.7,4.9c-22.1,0-40,17.9-40,40c0,22.1,17.9,40,40,40c22.1,0,40-17.9,40-40
			C83.7,22.8,65.8,4.9,43.7,4.9z M43.7,76.3c-17.3,0-31.4-14.1-31.4-31.4s14.1-31.4,31.4-31.4c17.3,0,31.4,14.1,31.4,31.4
			S61,76.3,43.7,76.3z M50.6,27.4H38.5L21.8,44.8V45l16.7,17.5h12.1l-12.7-13h27.7v-9H37.9L50.6,27.4z"/>
	</g>
</g>
</svg>
