<?xml version="1.0" encoding="utf-8"?>
<!-- Generator: Adobe Illustrator 19.1.0, SVG Export Plug-In . SVG Version: 6.00 Build 0)  -->
<svg version="1.1" id="Layer_1" xmlns="http://www.w3.org/2000/svg" xmlns:xlink="http://www.w3.org/1999/xlink" x="0px" y="0px"
	 viewBox="0 0 44 44" style="enable-background:new 0 0 44 44;" xml:space="preserve">
<g>
	<path style="fill-rule:evenodd;clip-rule:evenodd;" d="M22.2,0.5C10.3,0.5,0.7,10.1,0.7,22s9.6,21.5,21.5,21.5
		c11.9,0,21.5-9.6,21.5-21.5S34.1,0.5,22.2,0.5z M30.5,30.3L30.5,30.3l-7,0v-5.4h4.8l-6.2-7.8L16,24.9h4.8v5.4h-7v0
		c-2.6-0.3-4.7-2.5-4.7-5.2c0-2.6,2-4.8,4.6-5.1c-0.1-0.3-0.1-0.6-0.1-1c0-2.3,1.9-4.2,4.3-4.2c0.7,0,1.4,0.2,2,0.5
		c1.2-1.1,2.8-1.8,4.5-1.8c3.6,0,6.5,2.8,6.5,6.3c0,0.2,0,0.4,0,0.5c2.4,0.4,4.2,2.5,4.2,4.9C35.2,27.9,33.1,30.1,30.5,30.3z"/>
</g>
</svg>
