<?xml version="1.0" encoding="utf-8"?>
<!-- Generator: Adobe Illustrator 19.1.0, SVG Export Plug-In . SVG Version: 6.00 Build 0)  -->
<svg version="1.1" id="Layer_1" xmlns="http://www.w3.org/2000/svg" xmlns:xlink="http://www.w3.org/1999/xlink" x="0px" y="0px"
	 viewBox="0 0 88 88" style="enable-background:new 0 0 88 88;" xml:space="preserve">
<g>
	<g>
		<rect x="60.4" y="22.7" style="fill:#2A2A2A;" width="8.5" height="27.9"/>
		<rect x="60.4" y="57.8" style="fill:#2A2A2A;" width="8.5" height="7.5"/>
	</g>
	<g>
		<path style="fill:#2A2A2A;" d="M50,59.8c-1.3,1.6-3.2,3-5.9,4.2c-2.6,1.2-6,1.8-10.2,1.8c-5.3,0-9.6-1.6-12.8-4.8
			c-3.2-3.2-4.9-7.4-4.9-12.7v-8.9c0-5.2,1.6-9.5,4.7-12.6c3.1-3.2,7.2-4.8,12.3-4.8c5.3,0,9.3,1.2,12,3.7S49.5,31.6,50,36h-8.3
			c-0.4-2.4-1.2-4.2-2.5-5.4c-1.2-1.3-3.2-1.9-5.8-1.9c-2.7,0-4.8,1-6.4,3c-1.6,2-2.4,4.6-2.4,7.8v8.9c0,3.3,0.8,5.9,2.4,7.9
			c1.6,2,3.9,3,6.7,3c2,0,3.6-0.2,4.8-0.6c1.2-0.4,2.1-0.9,2.7-1.5v-7.7h-7.5v-5.9H50V59.8z"/>
	</g>
	<g>
		<path style="fill:#2A2A2A;" d="M44,87C44,87,44,87,44,87c-12.7,0-24.6-5.5-32.8-15.2C3,62.2-0.5,49.4,1.6,36.7
			C4.5,18.9,19,4.5,36.7,1.6C51.8-0.9,67,4.7,76.8,16.2c8.2,9.6,11.7,22.4,9.6,35.1C83.5,69,69,83.5,51.3,86.4
			C48.9,86.8,46.4,87,44,87z M44,6.2c-2.1,0-4.3,0.2-6.4,0.5C22,9.3,9.3,22,6.8,37.6C5,48.7,8,59.9,15.2,68.4
			c7.2,8.5,17.7,13.3,28.8,13.3c0,0,0,0,0,0c2.1,0,4.3-0.2,6.4-0.5C66,78.7,78.7,66,81.2,50.4C83,39.3,80,28,72.8,19.6
			C65.6,11.1,55.1,6.2,44,6.2z"/>
	</g>
</g>
</svg>
