<?xml version="1.0" encoding="utf-8"?>
<!-- Generator: Adobe Illustrator 19.1.0, SVG Export Plug-In . SVG Version: 6.00 Build 0)  -->
<svg version="1.1" id="Layer_1" xmlns="http://www.w3.org/2000/svg" xmlns:xlink="http://www.w3.org/1999/xlink" x="0px" y="0px"
	 viewBox="0 0 88 88" style="enable-background:new 0 0 88 88;" xml:space="preserve">
<g>
	<g>
		<path  d="M28.3,3.8v11.5h39.3V3.8H28.3z M39.3,32.1v53.3c2.8,0.6,5.7,0.9,8.7,0.9c3,0,6-0.3,8.9-0.9V32.1
			l10.8-15.7H28.3L39.3,32.1z M42.4,51c0-2.7,2.2-4.9,4.9-4.9h1.3c2.7,0,4.9,2.2,4.9,4.9v10.5c0,2.7-2.2,4.9-4.9,4.9h-1.3
			c-2.7,0-4.9-2.2-4.9-4.9V51z M47.9,56.5c2.2,0,4-1.8,4-4c0-2.2-1.8-4-4-4c-2.2,0-4,1.8-4,4C43.9,54.7,45.7,56.5,47.9,56.5z"/>
	</g>
</g>
</svg>
