<?xml version="1.0" encoding="utf-8"?>
<!-- Generator: Adobe Illustrator 19.1.0, SVG Export Plug-In . SVG Version: 6.00 Build 0)  -->
<svg version="1.1" id="Layer_1" xmlns="http://www.w3.org/2000/svg" xmlns:xlink="http://www.w3.org/1999/xlink" x="0px" y="0px"
	 viewBox="0 0 132 132" style="enable-background:new 0 0 132 132;" xml:space="preserve">
<g>
	<polygon  points="131,131 1,131 1,1 91.2,1 131,38.7 	"/>
	<path style="opacity:0.2;" d="M130.7,38.6h-29.6c-5.5,0-9.9-4.2-9.9-9.4V1L130.7,38.6z"/>
</g>
<g>
	<path  d="M38.6,77.4V63.2h4.9c1.6,0,2.8,0.3,3.7,1s1.3,1.6,1.3,2.9c0,0.7-0.2,1.2-0.5,1.8S47,69.7,46.3,70
		c0.8,0.2,1.4,0.6,1.8,1.2s0.6,1.3,0.6,2.1c0,1.3-0.4,2.4-1.3,3.1s-2.1,1.1-3.7,1.1H38.6z M41.1,69.2h2.4c0.8,0,1.4-0.2,1.8-0.5
		s0.6-0.8,0.6-1.5c0-0.7-0.2-1.2-0.6-1.5s-1-0.5-1.9-0.5h-2.4V69.2z M41.1,71v4.4h2.7c0.8,0,1.4-0.2,1.8-0.6s0.7-0.9,0.7-1.6
		c0-1.5-0.8-2.2-2.3-2.3H41.1z"/>
	<path  d="M53.3,75.4h6.5v2h-8.9V63.2h2.5V75.4z"/>
	<path  d="M69.4,74.1h-5.5l-1.2,3.3h-2.6l5.4-14.2h2.2l5.4,14.2h-2.6L69.4,74.1z M64.6,72.1h4.1l-2.1-5.9
		L64.6,72.1z"/>
	<path  d="M83.4,65.2H79v12.2h-2.5V65.2h-4.4v-2h11.3V65.2z"/>
	<path  d="M92.2,73.8c0-0.6-0.2-1.1-0.7-1.4s-1.2-0.7-2.4-1s-2.1-0.7-2.7-1.2c-1.3-0.8-1.9-1.9-1.9-3.2
		c0-1.1,0.5-2.1,1.4-2.8S88,63,89.5,63c1,0,1.9,0.2,2.6,0.5s1.4,0.9,1.8,1.6s0.7,1.4,0.7,2.2h-2.5c0-0.7-0.2-1.3-0.7-1.7
		c-0.5-0.4-1.1-0.6-2-0.6c-0.8,0-1.4,0.2-1.9,0.5c-0.4,0.3-0.7,0.8-0.7,1.4c0,0.5,0.2,1,0.7,1.3c0.5,0.3,1.3,0.7,2.4,1
		s2,0.7,2.7,1.1s1.2,0.9,1.5,1.4s0.5,1.2,0.5,1.9c0,1.2-0.5,2.1-1.4,2.8s-2.1,1-3.7,1c-1,0-2-0.2-2.8-0.6s-1.5-0.9-2-1.6
		S84,74,84,73.1h2.5c0,0.8,0.3,1.4,0.8,1.9s1.3,0.7,2.3,0.7c0.9,0,1.5-0.2,1.9-0.5S92.2,74.3,92.2,73.8z"/>
</g>
</svg>
