<?xml version="1.0" encoding="utf-8"?>
<!-- Generator: Adobe Illustrator 19.1.0, SVG Export Plug-In . SVG Version: 6.00 Build 0)  -->
<svg version="1.1" id="Layer_1" xmlns="http://www.w3.org/2000/svg" xmlns:xlink="http://www.w3.org/1999/xlink" x="0px" y="0px"
	 viewBox="0 0 88 88" style="enable-background:new 0 0 88 88;" xml:space="preserve">
<g>
	<g>
		<path  d="M25.6,3.8v11.5h39.3V3.8H25.6z M36.5,32.1v53.3c2.8,0.6,5.7,0.9,8.7,0.9c3,0,6-0.3,8.9-0.9V32.1
			l10.8-15.7H25.6L36.5,32.1z M39.7,51c0-2.7,2.2-4.9,4.9-4.9h1.3c2.7,0,4.9,2.2,4.9,4.9v10.5c0,2.7-2.2,4.9-4.9,4.9h-1.3
			c-2.7,0-4.9-2.2-4.9-4.9V51z M45.2,56.5c2.2,0,4-1.8,4-4c0-2.2-1.8-4-4-4c-2.2,0-4,1.8-4,4C41.2,54.7,43,56.5,45.2,56.5z"/>
	</g>
</g>
<rect x="-6.6" y="41.5" transform="matrix(-0.4909 -0.8712 0.8712 -0.4909 20.4239 100.7788)"  width="92.5" height="5.9"/>
<rect x="-6.6" y="41.5" transform="matrix(-0.4909 -0.8712 0.8712 -0.4909 20.4239 100.7788)"  width="92.5" height="5.9"/>
<rect x="-6.6" y="41.5" transform="matrix(-0.4909 -0.8712 0.8712 -0.4909 20.4239 100.7788)"  width="92.5" height="5.9"/>
<path  d="M67.6,81.8L22.1,1.2l-1.5-2.6L18.1,0L12.9,3l-2.6,1.5L11.7,7l45.4,80.6l1.5,2.6l2.6-1.5l5.2-2.9
	l2.6-1.5L67.6,81.8z M59.8,86.2L14.4,5.6l5.2-2.9L65,83.3L59.8,86.2z"/>
</svg>
