<?xml version="1.0" encoding="utf-8"?>
<!-- Generator: Adobe Illustrator 19.1.0, SVG Export Plug-In . SVG Version: 6.00 Build 0)  -->
<svg version="1.1" id="Layer_1" xmlns="http://www.w3.org/2000/svg" xmlns:xlink="http://www.w3.org/1999/xlink" x="0px" y="0px"
	 viewBox="0 0 132 132" style="enable-background:new 0 0 132 132;" xml:space="preserve">
<g>
	<polygon  points="131,131 1,131 1,1 91.2,1 131,38.7 	"/>
	<path style="opacity:0.2;" d="M130.7,38.6h-29.6c-5.5,0-9.9-4.2-9.9-9.4V1L130.7,38.6z"/>
</g>
<g>
	<path  d="M51.1,63.5l2.2-10.7h2.5L52.5,67h-2.4l-2.7-10.4L44.6,67h-2.4L39,52.8h2.5l2.2,10.7l2.7-10.7h2.1
		L51.1,63.5z"/>
	<path  d="M68,65.2c-0.5,0.7-1.2,1.2-2.1,1.5s-1.9,0.5-3.1,0.5c-1.2,0-2.2-0.3-3.2-0.8s-1.6-1.3-2.1-2.3
		s-0.8-2.2-0.8-3.5v-1.1c0-2.1,0.5-3.8,1.5-5s2.5-1.8,4.3-1.8c1.6,0,2.8,0.4,3.8,1.2s1.5,1.9,1.7,3.4h-2.4c-0.3-1.7-1.3-2.6-3-2.6
		c-1.1,0-1.9,0.4-2.5,1.2c-0.6,0.8-0.9,2-0.9,3.5v1.1c0,1.5,0.3,2.7,1,3.6c0.6,0.8,1.5,1.3,2.7,1.3c1.3,0,2.2-0.3,2.7-0.9v-2.8h-2.9
		v-1.9H68V65.2z"/>
	<path  d="M81.6,67h-2.5v-6.3h-6.4V67h-2.5V52.8h2.5v5.9h6.4v-5.9h2.5V67z"/>
	<path  d="M94.2,54.8h-4.4V67h-2.5V54.8h-4.4v-2h11.3V54.8z"/>
	<path  d="M27.8,83.4c-0.1,1.5-0.7,2.7-1.7,3.5s-2.3,1.3-3.9,1.3c-1.1,0-2.1-0.3-3-0.8s-1.5-1.3-2-2.3
		s-0.7-2.1-0.7-3.4v-1.3c0-1.3,0.2-2.5,0.7-3.5s1.2-1.8,2-2.4s1.9-0.8,3.1-0.8c1.6,0,2.8,0.4,3.8,1.3s1.5,2.1,1.7,3.6h-2.5
		c-0.1-1-0.4-1.8-0.9-2.2s-1.2-0.7-2.1-0.7c-1.1,0-1.9,0.4-2.5,1.2S19,78.7,19,80.2v1.3c0,1.5,0.3,2.7,0.8,3.5s1.4,1.2,2.4,1.2
		c1,0,1.7-0.2,2.2-0.7s0.8-1.2,0.9-2.2H27.8z"/>
	<path  d="M40.9,81.3c0,1.4-0.2,2.6-0.7,3.7s-1.2,1.9-2.1,2.4s-1.9,0.8-3.1,0.8c-1.2,0-2.2-0.3-3.1-0.8
		S30.4,86,29.9,85s-0.7-2.2-0.7-3.6v-0.8c0-1.4,0.2-2.6,0.7-3.7s1.2-1.9,2.1-2.4s1.9-0.8,3.1-0.8s2.2,0.3,3.1,0.8s1.6,1.4,2.1,2.4
		s0.7,2.3,0.7,3.6V81.3z M38.5,80.5c0-1.6-0.3-2.8-0.9-3.6s-1.4-1.3-2.5-1.3c-1.1,0-1.9,0.4-2.5,1.3s-0.9,2-0.9,3.5v0.8
		c0,1.6,0.3,2.8,0.9,3.6s1.5,1.3,2.5,1.3c1.1,0,1.9-0.4,2.5-1.3s0.9-2.1,0.9-3.7V80.5z"/>
	<path  d="M48.2,82.5h-2.8V88H43V73.8h5c1.6,0,2.9,0.4,3.8,1.1s1.3,1.8,1.3,3.2c0,1-0.2,1.7-0.7,2.4
		c-0.5,0.6-1.1,1.1-1.9,1.5l3.2,5.9V88h-2.6L48.2,82.5z M45.5,80.5H48c0.8,0,1.5-0.2,2-0.6s0.7-1,0.7-1.7c0-0.8-0.2-1.4-0.6-1.8
		s-1.1-0.6-1.9-0.6h-2.6V80.5z"/>
	<path  d="M60.3,82.5h-2.8V88h-2.5V73.8h5c1.6,0,2.9,0.4,3.8,1.1s1.3,1.8,1.3,3.2c0,1-0.2,1.7-0.7,2.4
		c-0.5,0.6-1.1,1.1-1.9,1.5l3.2,5.9V88h-2.6L60.3,82.5z M57.6,80.5h2.5c0.8,0,1.5-0.2,2-0.6s0.7-1,0.7-1.7c0-0.8-0.2-1.4-0.6-1.8
		s-1.1-0.6-1.9-0.6h-2.6V80.5z"/>
	<path  d="M82.6,83.4c-0.1,1.5-0.7,2.7-1.7,3.5s-2.3,1.3-3.9,1.3c-1.1,0-2.1-0.3-3-0.8s-1.5-1.3-2-2.3
		s-0.7-2.1-0.7-3.4v-1.3c0-1.3,0.2-2.5,0.7-3.5s1.2-1.8,2-2.4s1.9-0.8,3.1-0.8c1.6,0,2.8,0.4,3.8,1.3s1.5,2.1,1.7,3.6h-2.5
		c-0.1-1-0.4-1.8-0.9-2.2s-1.2-0.7-2.1-0.7c-1.1,0-1.9,0.4-2.5,1.2s-0.9,1.9-0.9,3.5v1.3c0,1.5,0.3,2.7,0.8,3.5s1.4,1.2,2.4,1.2
		c1,0,1.7-0.2,2.2-0.7s0.8-1.2,0.9-2.2H82.6z"/>
	<path  d="M92.7,81.7h-5.8V86h6.8v2h-9.3V73.8h9.2v2h-6.8v3.9h5.8V81.7z"/>
	<path  d="M100.5,82.5h-2.8V88h-2.5V73.8h5c1.6,0,2.9,0.4,3.8,1.1s1.3,1.8,1.3,3.2c0,1-0.2,1.7-0.7,2.4
		c-0.5,0.6-1.1,1.1-1.9,1.5l3.2,5.9V88h-2.6L100.5,82.5z M97.8,80.5h2.5c0.8,0,1.5-0.2,2-0.6s0.7-1,0.7-1.7c0-0.8-0.2-1.4-0.6-1.8
		s-1.1-0.6-1.9-0.6h-2.6V80.5z"/>
	<path  d="M117.2,75.8h-4.4V88h-2.5V75.8h-4.4v-2h11.3V75.8z"/>
</g>
</svg>
