<?xml version="1.0" encoding="utf-8"?>
<!-- Generator: Adobe Illustrator 19.1.0, SVG Export Plug-In . SVG Version: 6.00 Build 0)  -->
<svg version="1.1" id="Layer_1" xmlns="http://www.w3.org/2000/svg" xmlns:xlink="http://www.w3.org/1999/xlink" x="0px" y="0px"
	 viewBox="0 0 132 132" style="enable-background:new 0 0 132 132;" xml:space="preserve">
<g>
	<polygon  points="131,131 1,131 1,1 91.2,1 131,38.7 	"/>
	<path style="opacity:0.2;" d="M130.7,38.6h-29.6c-5.5,0-9.9-4.2-9.9-9.4V1L130.7,38.6z"/>
</g>
<g>
	<path  d="M50.7,77.4V63.2h4.9c1.6,0,2.8,0.3,3.7,1s1.3,1.6,1.3,2.9c0,0.7-0.2,1.2-0.5,1.8s-0.9,0.9-1.5,1.2
		c0.8,0.2,1.4,0.6,1.8,1.2s0.6,1.3,0.6,2.1c0,1.3-0.4,2.4-1.3,3.1c-0.9,0.7-2.1,1.1-3.7,1.1H50.7z M53.2,69.2h2.4
		c0.8,0,1.4-0.2,1.8-0.5s0.6-0.8,0.6-1.5c0-0.7-0.2-1.2-0.6-1.5s-1-0.5-1.9-0.5h-2.4V69.2z M53.2,71v4.4h2.7c0.8,0,1.4-0.2,1.8-0.6
		s0.7-0.9,0.7-1.6c0-1.5-0.8-2.2-2.3-2.3H53.2z"/>
	<path  d="M62.2,72.1c0-1,0.2-2,0.6-2.8s1-1.5,1.7-1.9s1.6-0.7,2.6-0.7c1.4,0,2.6,0.5,3.5,1.4s1.4,2.1,1.4,3.7
		l0,0.6c0,1-0.2,2-0.6,2.8s-1,1.5-1.7,1.9s-1.6,0.7-2.6,0.7c-1.5,0-2.7-0.5-3.6-1.5s-1.3-2.3-1.3-4V72.1z M64.6,72.3
		c0,1.1,0.2,1.9,0.7,2.6s1.1,0.9,1.9,0.9s1.4-0.3,1.9-0.9s0.7-1.5,0.7-2.7c0-1.1-0.2-1.9-0.7-2.5s-1.1-0.9-1.9-0.9
		c-0.8,0-1.4,0.3-1.8,0.9S64.6,71,64.6,72.3z"/>
	<path  d="M76.4,75.4h6.5v2h-8.9V63.2h2.5V75.4z"/>
</g>
</svg>
