<?xml version="1.0" encoding="utf-8"?>
<!-- Generator: Adobe Illustrator 19.1.0, SVG Export Plug-In . SVG Version: 6.00 Build 0)  -->
<svg version="1.1" id="Layer_1" xmlns="http://www.w3.org/2000/svg" xmlns:xlink="http://www.w3.org/1999/xlink" x="0px" y="0px"
	 viewBox="0 0 88 88" style="enable-background:new 0 0 88 88;" xml:space="preserve">
<g>
	<g>
		<path style="fill:#2A2A2A;" d="M44,87c-0.9,0-1.7-0.3-2.3-1L2,46.3c-1.3-1.3-1.3-3.4,0-4.7L41.7,1.9c1.2-1.2,3.4-1.2,4.7,0
			L86,41.6c1.3,1.3,1.3,3.4,0,4.7L46.3,86C45.7,86.6,44.9,87,44,87z M6.3,44L44,81.7L81.7,44L44,6.3L6.3,44z"/>
	</g>
	<g>
		<path style="fill:#2A2A2A;" d="M38.8,55.6h-4.5v-9.3h-9.2v9.3h-4.5V33.1h4.5v9.6h9.2v-9.6h4.5V55.6z"/>
		<path style="fill:#2A2A2A;" d="M48.9,33.1l5.7,16.6h0l5.8-16.6h5.9v22.4h-4.5v-6.7l0.4-10.1l0,0l-6.1,16.8h-3l-6-16.7l0,0l0.4,10
			v6.7h-4.5V33.1H48.9z"/>
	</g>
</g>
</svg>
