<svg id="Layer_1" data-name="Layer 1" xmlns="http://www.w3.org/2000/svg" viewBox="0 0 88 88"><defs><style></style></defs><title>WNI_</title><path class="cls-1" d="M83.11,4.8V61.7H40.35a4.49,4.49,0,0,0-3.07,1.21L19.92,79.13V66.2a4.49,4.49,0,0,0-4.49-4.49H5.11V4.8h78m0.41-4.49H4.7A4.08,4.08,0,0,0,.62,4.39V62.11A4.08,4.08,0,0,0,4.7,66.2H15.43V86.31a1.37,1.37,0,0,0,1.38,1.38,1.35,1.35,0,0,0,.93-0.37L40.35,66.2H83.52a4.08,4.08,0,0,0,4.08-4.08V4.39A4.08,4.08,0,0,0,83.52.31h0Z"/><path class="cls-1" d="M58.72,21.1H19.15a2.25,2.25,0,1,1,0-4.49H58.72A2.25,2.25,0,0,1,58.72,21.1Z"/><path class="cls-1" d="M68.58,35.13H19.15a2.25,2.25,0,1,1,0-4.49H68.58A2.25,2.25,0,0,1,68.58,35.13Z"/><path class="cls-1" d="M35.62,49.15H19.15a2.25,2.25,0,1,1,0-4.49H35.62A2.25,2.25,0,0,1,35.62,49.15Z"/></svg>
