<?xml version="1.0" encoding="utf-8"?>
<!-- Generator: Adobe Illustrator 19.1.0, SVG Export Plug-In . SVG Version: 6.00 Build 0)  -->
<svg version="1.1" id="Layer_1" xmlns="http://www.w3.org/2000/svg" xmlns:xlink="http://www.w3.org/1999/xlink" x="0px" y="0px"
	 viewBox="0 0 88 88" style="enable-background:new 0 0 88 88;" xml:space="preserve">
<g>
	<g>
		<g>
			<path style="fill:#2A2A2A;" d="M44,5.3c21.3,0,38.7,17.4,38.7,38.7S65.3,82.7,44,82.7S5.3,65.3,5.3,44S22.7,5.3,44,5.3 M44,1
				C20.3,1,1,20.3,1,44s19.3,43,43,43s43-19.3,43-43S67.7,1,44,1L44,1z"/>
		</g>
	</g>
	<g>
		<path style="fill:#2A2A2A;" d="M44.1,72.1h-5.5V60.7H27.4v11.4h-5.5V44.6h5.5v11.8h11.2V44.6h5.5V72.1z"/>
		<path style="fill:#2A2A2A;" d="M55.6,67.9H66v4.2h-16V44.6h5.5V67.9z"/>
	</g>
	<rect x="21.8" y="33.8" style="fill:#2A2A2A;" width="44.4" height="5"/>
	<rect x="21.8" y="25.2" style="fill:#2A2A2A;" width="44.4" height="5"/>
	<g>
		<polygon style="fill:#2A2A2A;" points="21.9,22.8 21.9,17.8 43.8,10.2 66.1,17.5 66.1,22.4 43.8,15.2 		"/>
	</g>
</g>
</svg>
