<?xml version="1.0" encoding="utf-8"?>
<!-- Generator: Adobe Illustrator 19.1.0, SVG Export Plug-In . SVG Version: 6.00 Build 0)  -->
<svg version="1.1" id="Layer_1" xmlns="http://www.w3.org/2000/svg" xmlns:xlink="http://www.w3.org/1999/xlink" x="0px" y="0px"
	 viewBox="0 0 88 88" style="enable-background:new 0 0 88 88;" xml:space="preserve">
<g>
	<g>
		<path style="fill:#2A2A2A;" d="M44,1C20.3,1,1,20.3,1,44s19.3,43,43,43s43-19.3,43-43S67.7,1,44,1z M44,82.6
			C22.7,82.6,5.4,65.3,5.4,44S22.7,5.4,44,5.4S82.6,22.7,82.6,44S65.3,82.6,44,82.6z"/>
	</g>
	<path style="fill:#2A2A2A;" d="M39.5,35.8c0-1.8-1.6-14.5-1.8-16.4c-0.2-1.9-0.7-1-0.7,0c0,1,0.4,12.7,0.4,14.3
		c0,1.6-0.9,1.9-0.9,0.8c-0.1-1.8-0.9-13.2-1.1-15.1c-0.2-1.9-0.7-1-0.7,0c0,1-0.3,14.8-0.3,15.6c0,0.7-1,0.7-1,0
		c0-0.7-0.3-14.6-0.3-15.6c0-1-0.4-1.9-0.7,0c-0.2,1.9-1.1,13.4-1.1,15.1c0,1-0.9,0.8-0.9-0.8c0-1.6,0.4-13.3,0.4-14.3
		c0-1-0.4-1.9-0.7,0c-0.2,1.9-1.8,14.6-1.8,16.4l0,1.1c0,4,3.8,4.1,3.8,7c0,2.5-0.3,18.8-0.3,19.2c-0.2,3.6-1.5,7.6-1.5,10.9
		c0,2.8,3.7,2.8,3.7,2.8l0,0c0,0,3.7,0,3.7-2.8c0-3.3-1.3-7.3-1.5-10.9c0-0.4-0.3-16.7-0.3-19.2c0-3,3.8-3,3.8-7L39.5,35.8z"/>
	<path style="fill:#2A2A2A;" d="M57,12c0-0.9,0.2-1-1.1-1c-4,0-6.2,10.3-6.7,12.9c-0.3,1.8-1.5,11.7-1.5,13.4v1.4
		c0,3.8,4.6,4.5,4.6,7.3c0,2.4-1.4,17.7-1.4,18.1c-0.3,3.4-0.7,7.1-0.7,10.3c0,2.7,4.3,2.7,4.3,2.7h0c0,0,4.7,0,4.7-2.7
		c0-3.1-1.1-6.9-1.3-10.3c0-0.4-1.2-15.7-1.2-18.1C56.7,44.5,57,12.9,57,12z"/>
</g>
</svg>
