<?xml version="1.0" encoding="utf-8"?>
<!-- Generator: Adobe Illustrator 19.1.0, SVG Export Plug-In . SVG Version: 6.00 Build 0)  -->
<svg version="1.1" id="Layer_1" xmlns="http://www.w3.org/2000/svg" xmlns:xlink="http://www.w3.org/1999/xlink" x="0px" y="0px"
	 viewBox="0 0 88 88" style="enable-background:new 0 0 88 88;" xml:space="preserve">
<path  d="M71.7,65.7c-0.2-0.2-0.4-0.3-0.6-0.5c6.2-9,5.3-21.4-2.7-29.3c-4.4-4.4-10.1-6.8-16.3-6.8
	c-6.2,0-11.9,2.4-16.3,6.8c-4.4,4.4-6.8,10.1-6.8,16.3c0,6.2,2.4,11.9,6.8,16.3c4.4,4.4,10.1,6.8,16.3,6.8c4.9,0,9.6-1.5,13.5-4.4
	c0.1,0.2,0.2,0.3,0.4,0.5l14.9,15c0.8,0.8,1.8,1.2,2.8,1.2c1,0,2.1-0.4,2.8-1.2c1.6-1.6,1.6-4.1,0-5.7L71.7,65.7z M65,65.1
	c-3.6,3.6-8.2,5.3-12.9,5.3c-4.7,0-9.3-1.8-12.9-5.3c-7.1-7.1-7.1-18.7,0-25.8c3.6-3.6,8.2-5.3,12.9-5.3c4.7,0,9.3,1.8,12.9,5.3
	C72.2,46.4,72.2,57.9,65,65.1z"/>
<rect x="56" y="15"  width="5" height="5"/>
<rect x="15"  width="5" height="7"/>
<rect  width="7" height="7"/>
<path  d="M48,7h20v20h-3.2c4.2,2,6.2,5,7.9,8H75V0H41v26.1c2-0.8,4-1.4,7-1.7V7z"/>
<rect x="15" y="56"  width="5" height="5"/>
<path  d="M27,64.5V68H5V48h19.4c0.3-3,0.8-5,1.7-7H0v34h35v-2.7C32,71.2,29,68.6,27,64.5z"/>
<path  d="M38,27.9v-7V0h-9v22h-9v-9H7.1H0v14.4V35h7v-6h6v6h17.3C32.2,32,36,29.1,38,27.9z"/>
</svg>
