<?xml version="1.0" encoding="utf-8"?>
<!-- Generator: Adobe Illustrator 19.1.0, SVG Export Plug-In . SVG Version: 6.00 Build 0)  -->
<svg version="1.1" id="Layer_1" xmlns="http://www.w3.org/2000/svg" xmlns:xlink="http://www.w3.org/1999/xlink" x="0px" y="0px"
	 viewBox="0 0 44 44" style="enable-background:new 0 0 44 44;" xml:space="preserve">
<circle style="fill-rule:evenodd;clip-rule:evenodd;fill:#00AB4E;" cx="22.1" cy="22" r="21.5"/>
<g>
	<g>
		<path style="fill-rule:evenodd;clip-rule:evenodd;fill:#FFFFFF;" d="M30.8,20.4c0-0.2,0-0.4,0-0.5c0-3.5-2.9-6.3-6.5-6.3
			c-1.8,0-3.3,0.7-4.5,1.8c-0.6-0.3-1.3-0.5-2-0.5c-2.4,0-4.3,1.9-4.3,4.2c0,0.3,0,0.6,0.1,1C11,20.4,9,22.5,9,25.2
			c0,2.6,2,4.8,4.7,5.2v0h7v-5.4h-4.8l6.2-7.8l6.2,7.8h-4.8v5.4h7v0c2.6-0.3,4.7-2.4,4.7-5C35,22.9,33.2,20.8,30.8,20.4z"/>
	</g>
</g>
</svg>
