<?xml version="1.0" encoding="utf-8"?>
<!-- Generator: Adobe Illustrator 19.1.0, SVG Export Plug-In . SVG Version: 6.00 Build 0)  -->
<svg version="1.1" id="Layer_1" xmlns="http://www.w3.org/2000/svg" xmlns:xlink="http://www.w3.org/1999/xlink" x="0px" y="0px"
	 viewBox="0 0 132 132" style="enable-background:new 0 0 132 132;" xml:space="preserve">
<g>
	<polygon  points="130.3,131 0.3,131 0.3,1 90.4,1 130.3,38.7 	"/>
	<path style="opacity:0.2;" d="M129.9,38.6h-29.6c-5.5,0-9.9-4.2-9.9-9.4V1L129.9,38.6z"/>
</g>
<g>
	<path  d="M32.3,72.8c-0.1,1.5-0.7,2.7-1.7,3.5s-2.3,1.3-3.9,1.3c-1.1,0-2.1-0.3-3-0.8s-1.5-1.3-2-2.3
		S21,72.4,21,71.1v-1.3c0-1.3,0.2-2.5,0.7-3.5s1.2-1.8,2-2.4s1.9-0.8,3.1-0.8c1.6,0,2.8,0.4,3.8,1.3s1.5,2.1,1.7,3.6h-2.5
		c-0.1-1-0.4-1.8-0.9-2.2c-0.5-0.5-1.2-0.7-2.1-0.7c-1.1,0-1.9,0.4-2.5,1.2s-0.9,1.9-0.9,3.5v1.3c0,1.5,0.3,2.7,0.8,3.5
		s1.4,1.2,2.4,1.2c1,0,1.7-0.2,2.2-0.7s0.8-1.2,0.9-2.2H32.3z"/>
	<path  d="M44.5,63.2v9.5c0,1.5-0.5,2.7-1.5,3.6s-2.3,1.3-3.9,1.3c-1.6,0-2.9-0.4-3.9-1.3s-1.4-2.1-1.4-3.6
		v-9.5h2.5v9.5c0,0.9,0.2,1.7,0.7,2.2c0.5,0.5,1.2,0.8,2.1,0.8c1.9,0,2.9-1,2.9-3v-9.4H44.5z"/>
	<path  d="M54.2,73.8c0-0.6-0.2-1.1-0.7-1.4s-1.2-0.7-2.4-1s-2.1-0.7-2.7-1.2c-1.3-0.8-1.9-1.9-1.9-3.2
		c0-1.1,0.5-2.1,1.4-2.8S50,63,51.5,63c1,0,1.9,0.2,2.6,0.5s1.4,0.9,1.8,1.6s0.7,1.4,0.7,2.2h-2.5c0-0.7-0.2-1.3-0.7-1.7
		c-0.5-0.4-1.1-0.6-2-0.6c-0.8,0-1.4,0.2-1.9,0.5c-0.4,0.3-0.7,0.8-0.7,1.4c0,0.5,0.2,1,0.7,1.3c0.5,0.3,1.3,0.7,2.4,1
		s2,0.7,2.7,1.1s1.2,0.9,1.5,1.4s0.5,1.2,0.5,1.9c0,1.2-0.5,2.1-1.4,2.8s-2.1,1-3.7,1c-1,0-2-0.2-2.8-0.6s-1.5-0.9-2-1.6
		S46,74,46,73.1h2.5c0,0.8,0.3,1.4,0.8,1.9s1.3,0.7,2.3,0.7c0.9,0,1.5-0.2,1.9-0.5S54.2,74.3,54.2,73.8z"/>
	<path  d="M68.7,65.2h-4.4v12.2h-2.5V65.2h-4.4v-2h11.3V65.2z"/>
	<path  d="M81.2,70.7c0,1.4-0.2,2.6-0.7,3.7s-1.2,1.9-2.1,2.4s-1.9,0.8-3.1,0.8c-1.2,0-2.2-0.3-3.1-0.8
		s-1.6-1.4-2.1-2.4s-0.7-2.2-0.7-3.6V70c0-1.4,0.2-2.6,0.7-3.7s1.2-1.9,2.1-2.4s1.9-0.8,3.1-0.8s2.2,0.3,3.1,0.8s1.6,1.4,2.1,2.4
		s0.7,2.3,0.7,3.6V70.7z M78.7,70c0-1.6-0.3-2.8-0.9-3.6s-1.4-1.3-2.5-1.3c-1.1,0-1.9,0.4-2.5,1.3s-0.9,2-0.9,3.5v0.8
		c0,1.6,0.3,2.8,0.9,3.6s1.5,1.3,2.5,1.3c1.1,0,1.9-0.4,2.5-1.3s0.9-2.1,0.9-3.7V70z"/>
	<path  d="M86.5,63.2l4.1,10.9l4.1-10.9h3.2v14.2h-2.5v-4.7l0.2-6.3l-4.2,11h-1.8l-4.2-10.9l0.2,6.3v4.7h-2.5
		V63.2H86.5z"/>
	<path  d="M107.8,73.8c0-0.6-0.2-1.1-0.7-1.4s-1.2-0.7-2.4-1s-2.1-0.7-2.7-1.2c-1.3-0.8-1.9-1.9-1.9-3.2
		c0-1.1,0.5-2.1,1.4-2.8s2.1-1.1,3.6-1.1c1,0,1.9,0.2,2.6,0.5s1.4,0.9,1.8,1.6s0.7,1.4,0.7,2.2h-2.5c0-0.7-0.2-1.3-0.7-1.7
		c-0.5-0.4-1.1-0.6-2-0.6c-0.8,0-1.4,0.2-1.9,0.5c-0.4,0.3-0.7,0.8-0.7,1.4c0,0.5,0.2,1,0.7,1.3c0.5,0.3,1.3,0.7,2.4,1
		s2,0.7,2.7,1.1s1.2,0.9,1.5,1.4s0.5,1.2,0.5,1.9c0,1.2-0.5,2.1-1.4,2.8s-2.1,1-3.7,1c-1,0-2-0.2-2.8-0.6s-1.5-0.9-2-1.6
		s-0.7-1.5-0.7-2.3h2.5c0,0.8,0.3,1.4,0.8,1.9s1.3,0.7,2.3,0.7c0.9,0,1.5-0.2,1.9-0.5S107.8,74.3,107.8,73.8z"/>
</g>
</svg>
