<?xml version="1.0" encoding="utf-8"?>
<!-- Generator: Adobe Illustrator 19.1.0, SVG Export Plug-In . SVG Version: 6.00 Build 0)  -->
<svg version="1.1" id="Layer_1" xmlns="http://www.w3.org/2000/svg" xmlns:xlink="http://www.w3.org/1999/xlink" x="0px" y="0px"
	 viewBox="0 0 88 88" style="enable-background:new 0 0 88 88;" xml:space="preserve">
<path  d="M52,1H11v87h68V26.3L52,1z M74,83H16V6h33v16.6c0,3.2,2.8,6,6.2,6l18.8,0V83z"/>
<path  d="M51.9,44.1c-0.3,0-0.5,0.1-0.7,0.3L43.1,55l-5.7-4.6c-0.3-0.2-0.6-0.2-0.9-0.1l-3.7,4.6
	c0,0.2,0,0.3,0,0.4l6.2,5.1l4.9,4c0.2,0,0.4,0,0.5-0.1l3.8-5l8.4-11.1c0-0.1,0-0.3,0-0.4L51.9,44.1z"/>
</svg>
