<?xml version="1.0" encoding="utf-8"?>
<!-- Generator: Adobe Illustrator 19.1.0, SVG Export Plug-In . SVG Version: 6.00 Build 0)  -->
<svg version="1.1" id="Layer_1" xmlns="http://www.w3.org/2000/svg" xmlns:xlink="http://www.w3.org/1999/xlink" x="0px" y="0px"
	 viewBox="0 0 88 88" style="enable-background:new 0 0 88 88;" xml:space="preserve">
<g>
	<path  d="M36.6,67.4l5.2-3l1.8-1.1L42,62.4l-5-2.9l2.9-5l5.3-9.4l2.6-5.1l2.3,1.5V6h22v30h5V1H0v72h40
		l-0.2-0.4L36.6,67.4z M27,68H5V6h22V68z"/>
	<path  d="M82.1,48l-5.5,3.2c-0.2-0.2-0.4-0.3-0.6-0.5c-0.9-0.7-2.4-1.3-3.5-1.8C72,48.7,71,48.4,70,48.3V42
		H60v6.3c-2,0.6-3.2,1.7-4.7,3l-4.7-2.9L50.2,48l-5.3,9.4l5.5,3.2c-0.2,0.9-0.4,1.7-0.4,2.8c0,1.1,0,1.9,0.2,3l-5.5,3.2l2.1,3.4
		l3.3,5.7l5.2-3.2c1.5,1.3,2.7,2.3,4.7,3V85h10v-6.6c2-0.6,4.4-1.7,5.8-3l6,3.2l5.5-9.1l-5.5-3.2c0.2-1.1,0.5-1.9,0.5-3
		c0-1.1,0-1.9-0.2-3l5.5-3.2L82.1,48z M66.2,69.9c-3.6,0-6.8-3-6.8-6.6c0-3.6,3-6.6,6.8-6.6s6.8,3,6.8,6.6
		C73,67,69.8,69.9,66.2,69.9z"/>
</g>
</svg>
